<svg width="29" height="30" viewBox="0 0 29 30" fill="none" xmlns="http://www.w3.org/2000/svg">
<mask id="mask0" mask-type="alpha" maskUnits="userSpaceOnUse" x="1" y="4" width="26" height="26">
<path d="M14.1429 30C21.2437 30 27.0001 24.2437 27.0001 17.1428C27.0001 10.042 21.2437 4.28571 14.1429 4.28571C7.04211 4.28571 1.28577 10.042 1.28577 17.1428C1.28577 24.2437 7.04211 30 14.1429 30Z" fill="white"/>
</mask>
<g mask="url(#mask0)">
<path d="M14.1429 30C21.2437 30 27.0001 24.2437 27.0001 17.1428C27.0001 10.042 21.2437 4.28571 14.1429 4.28571C7.04211 4.28571 1.28577 10.042 1.28577 17.1428C1.28577 24.2437 7.04211 30 14.1429 30Z" fill="#E6E6E6"/>
<path d="M27.0001 4.28571H1.28577V30H27.0001V4.28571Z" fill="#65C9FF"/>
</g>
<mask id="mask1" mask-type="alpha" maskUnits="userSpaceOnUse" x="0" y="0" width="29" height="30">
<path d="M1.28571 17.1429C1.28571 24.2437 7.04205 30 14.1429 30C21.2437 30 27 24.2437 27 17.1429H28.2857V0H0V17.1429H1.28571Z" fill="white"/>
</mask>
<g mask="url(#mask1)">
<mask id="mask2" mask-type="alpha" maskUnits="userSpaceOnUse" x="3" y="3" width="22" height="27">
<path d="M16.7143 19.3512V21.3214H17.1429C21.4034 21.3214 24.8572 24.7752 24.8572 29.0357V30H3.42859V29.0357C3.42859 24.7752 6.88239 21.3214 11.1429 21.3214H11.5714V19.3512C9.72459 18.4738 8.39704 16.6808 8.17557 14.5587C7.55148 14.4705 7.07145 13.9342 7.07145 13.2857V11.7857C7.07145 11.1486 7.53479 10.6198 8.14287 10.5178V9.85715C8.14287 6.54344 10.8292 3.85715 14.1429 3.85715C17.4566 3.85715 20.1429 6.54344 20.1429 9.85715V10.5178C20.751 10.6198 21.2143 11.1486 21.2143 11.7857V13.2857C21.2143 13.9342 20.7343 14.4705 20.1102 14.5587C19.8887 16.6808 18.5612 18.4738 16.7143 19.3512Z" fill="white"/>
</mask>
<g mask="url(#mask2)">
<path d="M16.7143 19.3512V21.3214H17.1429C21.4034 21.3214 24.8572 24.7752 24.8572 29.0357V30H3.42859V29.0357C3.42859 24.7752 6.88239 21.3214 11.1429 21.3214H11.5714V19.3512C9.72459 18.4738 8.39704 16.6808 8.17557 14.5587C7.55148 14.4705 7.07145 13.9342 7.07145 13.2857V11.7857C7.07145 11.1486 7.53479 10.6198 8.14287 10.5178V9.85715C8.14287 6.54344 10.8292 3.85715 14.1429 3.85715C17.4566 3.85715 20.1429 6.54344 20.1429 9.85715V10.5178C20.751 10.6198 21.2143 11.1486 21.2143 11.7857V13.2857C21.2143 13.9342 20.7343 14.4705 20.1102 14.5587C19.8887 16.6808 18.5612 18.4738 16.7143 19.3512Z" fill="#D0C6AC"/>
<path d="M28.2857 3.85715H0V30H28.2857V3.85715Z" fill="#EDB98A"/>
<path fill-rule="evenodd" clip-rule="evenodd" d="M20.1428 12.3214V14.7857C20.1428 18.0994 17.4565 20.7857 14.1428 20.7857C10.8291 20.7857 8.14282 18.0994 8.14282 14.7857V12.3214V13.9286C8.14282 17.2423 10.8291 19.9286 14.1428 19.9286C17.4565 19.9286 20.1428 17.2423 20.1428 13.9286V12.3214Z" fill="black" fill-opacity="0.1"/>
</g>
<mask id="mask3" mask-type="alpha" maskUnits="userSpaceOnUse" x="3" y="21" width="22" height="9">
<path fill-rule="evenodd" clip-rule="evenodd" d="M19.4512 21.6783C22.584 22.6594 24.8572 25.5849 24.8572 29.0412V30H3.42859V29.0412C3.42859 25.5425 5.75775 22.5878 8.95009 21.6431C8.9124 21.795 8.89287 21.9505 8.89287 22.1087C8.89287 23.8531 11.2674 25.2672 14.1964 25.2672C17.1255 25.2672 19.5 23.8531 19.5 22.1087C19.5 21.9627 19.4834 21.819 19.4512 21.6783Z" fill="white"/>
</mask>
<g mask="url(#mask3)">
<path fill-rule="evenodd" clip-rule="evenodd" d="M19.4512 21.6783C22.584 22.6594 24.8572 25.5849 24.8572 29.0412V30H3.42859V29.0412C3.42859 25.5425 5.75775 22.5878 8.95009 21.6431C8.9124 21.795 8.89287 21.9505 8.89287 22.1087C8.89287 23.8531 11.2674 25.2672 14.1964 25.2672C17.1255 25.2672 19.5 23.8531 19.5 22.1087C19.5 21.9627 19.4834 21.819 19.4512 21.6783Z" fill="#E6E6E6"/>
<path d="M28.2857 18.2143H0V30H28.2857V18.2143Z" fill="#FF5C5C"/>
</g>
<g opacity="0.6">
<path opacity="0.6" fill-rule="evenodd" clip-rule="evenodd" d="M13.0919 16.0828C13.0734 15.5352 12.6206 15.0854 12.0315 15C12.3922 15.2099 12.6408 15.5888 12.6408 16.0368C12.6408 16.6441 12.0544 17.1691 11.3761 17.1691C11.3698 17.1691 11.3635 17.1691 11.3572 17.169H11.3572C11.5026 17.2213 11.6615 17.25 11.8278 17.25C12.398 17.25 12.88 16.9122 13.0379 16.4479C13.303 16.6789 13.6996 16.8257 14.1429 16.8257C14.5861 16.8257 14.9828 16.6789 15.2479 16.4479C15.4058 16.9122 15.8878 17.25 16.458 17.25C16.6243 17.25 16.7831 17.2213 16.9286 17.169C16.9223 17.1691 16.916 17.1691 16.9097 17.1691C16.2314 17.1691 15.645 16.6441 15.645 16.0368C15.645 15.5888 15.8936 15.2099 16.2543 15C15.6651 15.0854 15.2124 15.5352 15.1939 16.0828C14.9192 16.2688 14.5495 16.3827 14.1429 16.3827C13.7363 16.3827 13.3666 16.2688 13.0919 16.0828Z" fill="black" fill-opacity="0.6"/>
</g>
<path d="M10.1785 16.9286C10.7111 16.9286 11.1428 16.4968 11.1428 15.9643C11.1428 15.4317 10.7111 15 10.1785 15C9.64596 15 9.21423 15.4317 9.21423 15.9643C9.21423 16.4968 9.64596 16.9286 10.1785 16.9286Z" fill="#FF4646" fill-opacity="0.2"/>
<path d="M18.1071 16.9286C18.6397 16.9286 19.0714 16.4968 19.0714 15.9643C19.0714 15.4317 18.6397 15 18.1071 15C17.5745 15 17.1428 15.4317 17.1428 15.9643C17.1428 16.4968 17.5745 16.9286 18.1071 16.9286Z" fill="#FF4646" fill-opacity="0.2"/>
<path fill-rule="evenodd" clip-rule="evenodd" d="M12.8572 13.9286C12.8572 14.402 13.4328 14.7857 14.1429 14.7857C14.853 14.7857 15.4286 14.402 15.4286 13.9286" fill="black" fill-opacity="0.16"/>
<mask id="mask4" mask-type="alpha" maskUnits="userSpaceOnUse" x="9" y="11" width="4" height="2">
<path fill-rule="evenodd" clip-rule="evenodd" d="M11.3572 12.5409C12.3868 12.5409 12.8572 13.0178 12.8572 12.2745C12.8572 11.5311 12.1856 11.0357 11.3572 11.0357C10.5288 11.0357 9.85718 11.5311 9.85718 12.2745C9.85718 13.0178 10.3275 12.5409 11.3572 12.5409Z" fill="white"/>
</mask>
<g mask="url(#mask4)">
<path fill-rule="evenodd" clip-rule="evenodd" d="M11.3572 12.5409C12.3868 12.5409 12.8572 13.0178 12.8572 12.2745C12.8572 11.5311 12.1856 11.0357 11.3572 11.0357C10.5288 11.0357 9.85718 11.5311 9.85718 12.2745C9.85718 13.0178 10.3275 12.5409 11.3572 12.5409Z" fill="white"/>
<path d="M11.3571 12.75C11.7121 12.75 11.9999 12.4622 11.9999 12.1072C11.9999 11.7521 11.7121 11.4643 11.3571 11.4643C11.0021 11.4643 10.7142 11.7521 10.7142 12.1072C10.7142 12.4622 11.0021 12.75 11.3571 12.75Z" fill="black" fill-opacity="0.7"/>
</g>
<mask id="mask5" mask-type="alpha" maskUnits="userSpaceOnUse" x="15" y="11" width="4" height="2">
<path fill-rule="evenodd" clip-rule="evenodd" d="M16.9286 12.5409C17.9582 12.5409 18.4286 13.0178 18.4286 12.2745C18.4286 11.5311 17.757 11.0357 16.9286 11.0357C16.1002 11.0357 15.4286 11.5311 15.4286 12.2745C15.4286 13.0178 15.8989 12.5409 16.9286 12.5409Z" fill="white"/>
</mask>
<g mask="url(#mask5)">
<path fill-rule="evenodd" clip-rule="evenodd" d="M16.9286 12.5409C17.9582 12.5409 18.4286 13.0178 18.4286 12.2745C18.4286 11.5311 17.757 11.0357 16.9286 11.0357C16.1002 11.0357 15.4286 11.5311 15.4286 12.2745C15.4286 13.0178 15.8989 12.5409 16.9286 12.5409Z" fill="white"/>
<path d="M16.9285 12.75C17.2835 12.75 17.5714 12.4622 17.5714 12.1072C17.5714 11.7521 17.2835 11.4643 16.9285 11.4643C16.5735 11.4643 16.2856 11.7521 16.2856 12.1072C16.2856 12.4622 16.5735 12.75 16.9285 12.75Z" fill="black" fill-opacity="0.7"/>
</g>
<path fill-rule="evenodd" clip-rule="evenodd" d="M12.8673 10.6205C12.8677 10.6196 12.8677 10.6196 12.8673 10.6205V10.6205ZM10.2089 9.32198C9.95525 9.29348 9.68852 9.37526 9.52041 9.58275C9.45719 9.66074 9.35396 9.84843 9.35874 9.94882C9.36053 9.98697 9.38283 9.98908 9.47914 10.012C9.65545 10.0541 9.96127 9.8927 10.16 9.90793C10.4366 9.9291 10.7007 10.0574 10.9403 10.1949C11.3516 10.431 11.8354 10.9279 12.3431 10.9019C12.3809 10.8999 12.9238 10.7156 12.8157 10.6102C12.7818 10.5583 12.4906 10.4893 12.4405 10.4643C12.2078 10.3482 11.9726 10.202 11.7503 10.0659C11.2651 9.76899 10.7919 9.38687 10.2089 9.32198Z" fill="black" fill-opacity="0.6"/>
<path fill-rule="evenodd" clip-rule="evenodd" d="M15.4319 10.6205C15.4314 10.6196 15.4314 10.6196 15.4319 10.6205V10.6205ZM18.0971 9.32197C18.3508 9.29348 18.6175 9.37526 18.7856 9.58275C18.8488 9.66074 18.9521 9.84843 18.9473 9.94882C18.9455 9.98697 18.9232 9.98908 18.8269 10.012C18.6506 10.0541 18.3448 9.8927 18.146 9.90792C17.8694 9.9291 17.6053 10.0574 17.3657 10.1949C16.9545 10.4309 16.4706 10.9279 15.9629 10.9019C15.9251 10.8999 15.3822 10.7156 15.4903 10.6102C15.5243 10.5583 15.8154 10.4893 15.8655 10.4643C16.0982 10.3482 16.3334 10.202 16.5558 10.0659C17.0409 9.76899 17.5141 9.38686 18.0971 9.32197Z" fill="black" fill-opacity="0.6"/>
<mask id="mask6" mask-type="alpha" maskUnits="userSpaceOnUse" x="0" y="0" width="29" height="30">
<path d="M28.2857 0H0V30H28.2857V0Z" fill="white"/>
</mask>
<g mask="url(#mask6)">
<path fill-rule="evenodd" clip-rule="evenodd" d="M20.1429 10.4932V10.5178C20.6952 10.6104 21.1282 11.0553 21.2029 11.6135C21.4768 11.3022 21.6429 10.8937 21.6429 10.4464C21.6429 10.2182 21.5996 10.0001 21.5209 9.79984C21.86 9.47773 22.0714 9.02248 22.0714 8.51785C22.0714 7.89256 21.7468 7.34309 21.2569 7.02879C21.3669 6.79832 21.4286 6.54028 21.4286 6.26785C21.4286 5.44983 20.873 4.76158 20.1186 4.55986C20.1346 4.45294 20.1429 4.34351 20.1429 4.23213C20.1429 3.01908 19.1595 2.03571 17.9464 2.03571C17.6647 2.03571 17.3954 2.08873 17.1479 2.18535C16.7483 1.63989 16.103 1.28571 15.375 1.28571C14.9183 1.28571 14.4942 1.42507 14.1429 1.6636C13.7915 1.42507 13.3674 1.28571 12.9107 1.28571C12.1827 1.28571 11.5374 1.63989 11.1378 2.18535C10.8903 2.08873 10.621 2.03571 10.3393 2.03571C9.12623 2.03571 8.14286 3.01908 8.14286 4.23213C8.14286 4.34351 8.15115 4.45294 8.16714 4.55986C7.41273 4.76158 6.85714 5.44983 6.85714 6.26785C6.85714 6.50268 6.90293 6.72681 6.98606 6.93181C6.40183 7.22034 6 7.82217 6 8.51785C6 9.10049 6.28185 9.61729 6.71665 9.93936C6.66864 10.1 6.64286 10.2702 6.64286 10.4464C6.64286 10.8937 6.80896 11.3022 7.08285 11.6135C7.15756 11.0553 7.5905 10.6104 8.14286 10.5178V10.4932C8.14582 10.4955 8.1488 10.4977 8.15179 10.5C8.46278 5.44848 13.3449 7.2581 14.1429 4.42887C14.9408 7.2581 19.8229 5.44848 20.1339 10.5C20.1369 10.4977 20.1399 10.4955 20.1429 10.4932ZM11.5714 19.3512V19.8013C11.4841 19.8145 11.3946 19.8214 11.3036 19.8214C10.5728 19.8214 9.94552 19.378 9.67625 18.7455C8.75932 18.6802 8.03571 17.9157 8.03571 16.9821C8.03571 16.8245 8.05634 16.6717 8.09503 16.5263C7.37759 16.3012 6.85714 15.631 6.85714 14.8393C6.85714 14.4381 6.99078 14.0681 7.21598 13.7714C7.40213 14.129 7.75143 14.3881 8.16521 14.45C8.35198 16.6194 9.69313 18.4589 11.5714 19.3512ZM16.7143 19.3512V19.8013C16.8016 19.8145 16.8911 19.8214 16.9821 19.8214C17.713 19.8214 18.3402 19.378 18.6095 18.7455C19.5264 18.6802 20.25 17.9157 20.25 16.9821C20.25 16.8245 20.2294 16.6717 20.1907 16.5263C20.9081 16.3012 21.4286 15.631 21.4286 14.8393C21.4286 14.4381 21.2949 14.0681 21.0697 13.7714C20.8836 14.129 20.5343 14.3881 20.1205 14.45C19.9337 16.6194 18.5926 18.4589 16.7143 19.3512Z" fill="#1F3540"/>
<g opacity="0.9" filter="url(#filter0_d)">
<path opacity="0.9" d="M19.0221 6.28525C19.0221 6.28525 18.5357 7.1533 19.6868 7.60919C20.4392 7.90715 21.1449 7.58053 21.1449 7.58053C21.1449 7.58053 20.8491 6.55427 19.9839 6.21161C19.3068 5.94345 19.0221 6.28525 19.0221 6.28525Z" fill="#5DD362"/>
<path opacity="0.9" d="M21.152 7.54765C21.152 7.54765 20.8598 6.54503 20.0047 6.21027C19.5586 6.03561 19.2833 6.12765 19.1468 6.20745C18.9865 5.95964 18.963 5.78021 18.9652 5.77367C18.9666 5.74462 18.9413 5.7199 18.9116 5.70826C18.9041 5.70535 18.8893 5.69952 18.8796 5.70315C18.838 5.70167 18.8099 5.73506 18.8137 5.77356C18.8145 5.79608 18.8787 6.22832 19.3642 6.68485C20.0538 7.38413 21.152 7.54765 21.152 7.54765Z" fill="#42BC53"/>
</g>
<g filter="url(#filter1_d)">
<path fill-rule="evenodd" clip-rule="evenodd" d="M17.6684 2.85256C18.2517 2.5053 18.5232 1.64666 18.5232 1.64666C18.5232 1.64666 17.7558 1.25541 16.8897 1.68969C16.0237 2.12397 16.1495 2.80416 16.1495 2.80416C16.1495 2.80416 16.8269 3.35352 17.6684 2.85256Z" fill="#5DD362"/>
<path fill-rule="evenodd" clip-rule="evenodd" d="M15.7359 3.20312C15.7408 3.21168 15.7456 3.22025 15.7599 3.22322C15.8029 3.25484 15.8741 3.24696 15.9117 3.20186C16.0295 3.07512 16.1425 2.96254 16.2747 2.86148C16.4754 2.99393 17.0287 3.23745 17.6811 2.8514C18.258 2.5101 18.5264 1.6662 18.5264 1.6662C18.5264 1.6662 18.4031 1.69349 18.1945 1.74842C18.1376 1.75927 16.6576 2.06405 15.7587 3.08689C15.7257 3.11783 15.7166 3.16887 15.7359 3.20312Z" fill="#42BC53"/>
</g>
<g filter="url(#filter2_d)">
<path fill-rule="evenodd" clip-rule="evenodd" d="M9.61185 5.87855C9.02853 6.22581 8.75705 7.08445 8.75705 7.08445C8.75705 7.08445 9.52437 7.4757 10.3905 7.04141C11.2566 6.60713 11.1307 5.92695 11.1307 5.92695C11.1307 5.92695 10.4534 5.37759 9.61185 5.87855Z" fill="#5DD362"/>
<path fill-rule="evenodd" clip-rule="evenodd" d="M11.5443 5.52801C11.5395 5.51945 11.5346 5.51089 11.5204 5.50792C11.4773 5.47629 11.4061 5.48417 11.3685 5.52927C11.2508 5.65602 11.1377 5.7686 11.0055 5.86965C10.8048 5.73721 10.2515 5.49369 9.59907 5.87975C9.02226 6.22104 8.7538 7.06494 8.7538 7.06494C8.7538 7.06494 8.87711 7.03765 9.08572 6.98272C9.14265 6.97187 10.6226 6.66708 11.5215 5.64425C11.5545 5.6133 11.5636 5.56227 11.5443 5.52801Z" fill="#42BC53"/>
</g>
<g filter="url(#filter3_d)">
<path d="M7.24024 5.35244C7.1507 5.23359 7.1128 5.08697 7.13348 4.93958C7.15416 4.79218 7.23108 4.66172 7.34984 4.5722C7.38189 4.54801 7.42417 4.5282 7.47218 4.51133C7.4236 4.49621 7.38067 4.47786 7.34781 4.45485C7.09619 4.27867 7.03477 3.93058 7.21099 3.6789C7.38722 3.42723 7.73532 3.3659 7.98694 3.54208C8.0198 3.56509 8.05172 3.59916 8.0826 3.63967C8.08198 3.58875 8.08619 3.54228 8.09795 3.50389C8.14144 3.36158 8.23782 3.24467 8.36921 3.17487C8.50059 3.10499 8.65135 3.09054 8.79369 3.13399C9.08747 3.22384 9.25339 3.53591 9.16362 3.82967C9.15191 3.86787 9.13 3.90845 9.10121 3.95011C9.1492 3.93391 9.19432 3.92409 9.23424 3.92341C9.54142 3.91805 9.79566 4.16356 9.80107 4.47076C9.80311 4.59273 9.76575 4.7063 9.70063 4.7993C9.60169 4.94049 9.43888 5.03432 9.2537 5.0375C9.21377 5.03819 9.16839 5.02992 9.11988 5.01545C9.15007 5.05608 9.17336 5.09589 9.18637 5.13365C9.24668 5.30881 9.21432 5.49382 9.1154 5.6351C9.05028 5.7281 8.95626 5.80215 8.84098 5.84181C8.5505 5.94183 8.23282 5.78681 8.13285 5.49636C8.11984 5.45861 8.11369 5.41289 8.11244 5.36221C8.08314 5.40352 8.05247 5.43804 8.02061 5.46206C7.90173 5.55165 7.75515 5.5895 7.60775 5.56882C7.46027 5.54815 7.32978 5.47128 7.24024 5.35244Z" fill="#4ACAD3"/>
<path fill-rule="evenodd" clip-rule="evenodd" d="M8.65953 4.03286C8.6845 3.95111 8.63852 3.86459 8.55678 3.83962C8.47504 3.81465 8.38851 3.86062 8.36355 3.94237C8.33858 4.02411 8.3884 4.39038 8.3884 4.39038C8.3884 4.39038 8.63456 4.1146 8.65953 4.03286ZM8.89982 4.65401C8.9853 4.6525 9.05337 4.58205 9.05186 4.49657C9.05034 4.4111 8.97989 4.34302 8.89441 4.34454C8.80894 4.34605 8.47598 4.50664 8.47598 4.50664C8.47598 4.50664 8.81438 4.65548 8.89982 4.65401ZM8.25079 4.43776C8.25079 4.43776 8.06456 4.11843 7.99453 4.0694C7.9245 4.02036 7.82802 4.03737 7.77899 4.1074C7.72995 4.17743 7.74697 4.27391 7.81699 4.32294C7.88702 4.37198 8.25079 4.43776 8.25079 4.43776ZM8.58004 5.1704C8.66087 5.14259 8.7038 5.05452 8.67599 4.97369C8.64817 4.89285 8.3925 4.62586 8.3925 4.62586C8.3925 4.62586 8.35548 4.99366 8.38329 5.0745C8.41113 5.15529 8.4992 5.19821 8.58004 5.1704ZM8.0101 4.96033C8.07838 4.90891 8.25334 4.58328 8.25334 4.58328C8.25334 4.58328 7.89211 4.66173 7.82384 4.71315C7.75556 4.76457 7.74192 4.86165 7.79338 4.92987C7.8448 4.99815 7.94188 5.01179 8.0101 4.96033Z" fill="white"/>
</g>
<g filter="url(#filter4_d)">
<path d="M12.485 5.26052L12.5126 5.01257L12.7605 4.98481C13.0656 4.95056 13.3081 4.75801 13.4092 4.46939C13.5234 4.14343 13.4162 3.78808 13.1363 3.58207L12.9355 3.43424L13.0354 3.20562C13.167 2.90494 13.1045 2.57396 12.8724 2.34188C12.6404 2.10981 12.3094 2.04732 12.0086 2.17884L11.7801 2.27879L11.6322 2.07793C11.4262 1.79846 11.0708 1.69094 10.7448 1.80513C10.4563 1.90622 10.2636 2.14872 10.2295 2.45377L10.2017 2.70166L9.95385 2.72942C9.64875 2.7636 9.40625 2.95628 9.30515 3.24478C9.20472 3.53152 9.27321 3.84063 9.48395 4.05136L9.48401 4.05143C9.5128 4.08021 9.54438 4.10731 9.57795 4.13204L9.77881 4.27992L9.67881 4.50854C9.54741 4.80928 9.6099 5.14027 9.84197 5.37234C10.074 5.60441 10.405 5.6669 10.7058 5.5355L10.9344 5.4355L11.0823 5.63635C11.2877 5.91607 11.6437 6.02334 11.9697 5.90922C12.2582 5.808 12.4508 5.56556 12.485 5.26052Z" fill="#FDB599"/>
<path fill-rule="evenodd" clip-rule="evenodd" d="M11.6659 4.4133C11.6879 4.4956 11.6391 4.58021 11.5568 4.60228C11.4745 4.62434 11.3898 4.57543 11.3678 4.49318C11.3458 4.41093 11.3571 3.85715 11.3571 3.85715C11.3571 3.85715 11.0901 4.34238 11.0298 4.40263C10.9696 4.46281 10.8719 4.46288 10.8116 4.40263C10.7514 4.34238 10.7514 4.24462 10.8116 4.18444C10.8719 4.12419 11.3571 3.85715 11.3571 3.85715C11.3571 3.85715 10.8034 3.86854 10.7211 3.84648C10.6388 3.82442 10.5899 3.73981 10.612 3.6575C10.634 3.57519 10.7187 3.52634 10.801 3.5484C10.8833 3.57047 11.3571 3.85715 11.3571 3.85715C11.3571 3.85715 11.0704 3.3833 11.0484 3.301C11.0263 3.21869 11.0752 3.13408 11.1575 3.11202C11.2398 3.08996 11.3244 3.13881 11.3464 3.22111C11.3685 3.30342 11.3571 3.85715 11.3571 3.85715C11.3571 3.85715 11.6242 3.37191 11.6844 3.31166C11.7447 3.25142 11.8424 3.25142 11.9026 3.31166C11.9628 3.37191 11.9628 3.46961 11.9026 3.52986C11.8424 3.5901 11.3571 3.85715 11.3571 3.85715C11.3571 3.85715 11.9109 3.84581 11.9931 3.86781C12.0754 3.88982 12.1243 3.97449 12.1022 4.05679C12.0802 4.1391 11.9956 4.18795 11.9133 4.16589C11.831 4.14383 11.3571 3.85715 11.3571 3.85715C11.3571 3.85715 11.6437 4.33093 11.6659 4.4133Z" fill="white"/>
</g>
<g filter="url(#filter5_d)">
<path d="M20.3313 5.98095C20.4587 5.81182 20.5126 5.60317 20.4832 5.39341C20.4538 5.18366 20.3443 4.99801 20.1753 4.8706C20.1297 4.83619 20.0695 4.80799 20.0012 4.78399C20.0703 4.76246 20.1314 4.73636 20.1782 4.70362C20.5362 4.45289 20.6237 3.95753 20.3729 3.59938C20.1221 3.24123 19.6267 3.15395 19.2686 3.40468C19.2219 3.43742 19.1765 3.48589 19.1325 3.54355C19.1334 3.47109 19.1274 3.40495 19.1107 3.35032C19.0488 3.14781 18.9116 2.98143 18.7246 2.88211C18.5377 2.78266 18.3231 2.7621 18.1206 2.82392C17.7025 2.95179 17.4664 3.39588 17.5941 3.81393C17.6108 3.8683 17.642 3.92604 17.683 3.98533C17.6147 3.96228 17.5505 3.9483 17.4936 3.94733C17.0565 3.9397 16.6947 4.28908 16.687 4.72626C16.6841 4.89982 16.7373 5.06145 16.8299 5.19379C16.9707 5.39472 17.2024 5.52824 17.466 5.53277C17.5228 5.53374 17.5873 5.52198 17.6564 5.50139C17.6134 5.55921 17.5803 5.61587 17.5618 5.66959C17.4759 5.91886 17.522 6.18215 17.6628 6.38319C17.7554 6.51554 17.8892 6.62092 18.0533 6.67736C18.4667 6.8197 18.9187 6.59909 19.061 6.18576C19.0795 6.13204 19.0883 6.06697 19.0901 5.99486C19.1317 6.05364 19.1754 6.10277 19.2207 6.13695C19.3899 6.26444 19.5985 6.3183 19.8083 6.28887C20.0181 6.25946 20.2038 6.15007 20.3313 5.98095Z" fill="#F7D30C"/>
<path fill-rule="evenodd" clip-rule="evenodd" d="M18.3115 4.10308C18.276 3.98676 18.3414 3.86362 18.4577 3.82809C18.5741 3.79256 18.6972 3.85798 18.7327 3.97431C18.7683 4.09063 18.6974 4.61187 18.6974 4.61187C18.6974 4.61187 18.3471 4.21941 18.3115 4.10308ZM17.9696 4.98704C17.8479 4.98488 17.7511 4.88462 17.7532 4.76298C17.7554 4.64135 17.8556 4.54447 17.9773 4.54663C18.0989 4.54879 18.5727 4.77731 18.5727 4.77731C18.5727 4.77731 18.0911 4.98912 17.9696 4.98704ZM18.8932 4.67929C18.8932 4.67929 19.1582 4.22486 19.2579 4.15508C19.3575 4.0853 19.4948 4.10951 19.5646 4.20916C19.6344 4.30882 19.6102 4.44611 19.5105 4.5159C19.4109 4.58568 18.8932 4.67929 18.8932 4.67929ZM18.4246 5.72189C18.3096 5.68232 18.2485 5.55699 18.2881 5.44195C18.3277 5.32692 18.6915 4.94697 18.6915 4.94697C18.6915 4.94697 18.7442 5.47038 18.7046 5.58542C18.665 5.70039 18.5397 5.76147 18.4246 5.72189ZM19.2357 5.42295C19.1385 5.34978 18.8896 4.88638 18.8896 4.88638C18.8896 4.88638 19.4036 4.99802 19.5008 5.07119C19.5979 5.14437 19.6173 5.28252 19.5441 5.37961C19.4709 5.47676 19.3328 5.49618 19.2357 5.42295Z" fill="white"/>
</g>
<g filter="url(#filter6_d)">
<path d="M18.0148 3.37997C18.2102 2.63176 17.3725 2.04985 17.0555 1.86018C17.1106 1.54583 17.2347 0.514358 16.5768 0.133486C15.9227 -0.245171 15.0989 0.369601 14.8501 0.577933C14.8286 0.564508 14.8034 0.549203 14.7747 0.532584C14.4462 0.342394 13.6211 -0.0407668 13.0553 0.50747C12.4505 1.09334 12.8075 2.00778 12.9434 2.29651C12.712 2.51196 12.045 3.21708 12.32 3.96686C12.3956 4.17354 12.5355 4.3371 12.7359 4.45312C13.1678 4.70314 13.7653 4.66282 13.9919 4.63599C14.0984 4.83746 14.4023 5.35515 14.8371 5.60683C15.016 5.71042 15.1987 5.7582 15.3804 5.74878C16.1202 5.71042 16.4428 4.67788 16.5236 4.36529C16.8301 4.32285 17.8185 4.12975 18.0148 3.37997Z" fill="#FF7398"/>
<path fill-rule="evenodd" clip-rule="evenodd" d="M15.189 2.74317C15.189 2.74317 15.5838 3.62043 15.2269 3.67647C14.8696 3.7322 15.0704 2.75587 15.0704 2.75587C15.0704 2.75587 14.3084 3.39953 14.1972 3.08038C14.0858 2.76117 15.0223 2.64668 15.0223 2.64668C15.0223 2.64668 14.1665 2.1439 14.4444 1.91421C14.7223 1.68451 15.1104 2.56688 15.1104 2.56688C15.1104 2.56688 15.3188 1.61126 15.6269 1.78965C15.935 1.96803 15.2136 2.62663 15.2136 2.62663C15.2136 2.62663 16.1647 2.52059 16.1103 2.87863C16.0562 3.23669 15.189 2.74317 15.189 2.74317Z" fill="white"/>
</g>
<path d="M20.5715 13.9286C20.5715 13.8694 20.5235 13.8214 20.4643 13.8214C20.4051 13.8214 20.3572 13.8694 20.3572 13.9286V17.8929C20.3572 17.952 20.4051 18 20.4643 18C20.5235 18 20.5715 17.952 20.5715 17.8929V13.9286Z" fill="#E6E6E6"/>
<path d="M21.5357 17.7857H20.5253L21.2143 15.9643H20.0357L19.3928 18.2143H20.3181L19.8214 20.25L21.5357 17.7857Z" fill="#9177FF"/>
<mask id="mask7" mask-type="alpha" maskUnits="userSpaceOnUse" x="10" y="14" width="8" height="3">
<path fill-rule="evenodd" clip-rule="evenodd" d="M14.1426 15.7328C14.0846 15.8152 14.0101 15.8839 13.9231 15.931C12.9694 16.4475 11.9867 15.9999 11.451 16.0318C11.192 16.0472 10.8579 16.2231 10.7373 16.0371C10.6046 15.8322 11.043 14.7022 12.0772 14.514C12.8283 14.3774 13.8747 14.5288 14.1426 14.8862C14.4105 14.5288 15.4569 14.3774 16.2079 14.514C17.2422 14.7022 17.6806 15.8322 17.5479 16.0371C17.4273 16.2231 17.0931 16.0472 16.8342 16.0318C16.2984 15.9999 15.3158 16.4475 14.3621 15.931C14.2751 15.8839 14.2006 15.8152 14.1426 15.7328Z" fill="white"/>
</mask>
<g mask="url(#mask7)">
<path fill-rule="evenodd" clip-rule="evenodd" d="M14.1426 15.7328C14.0846 15.8152 14.0101 15.8839 13.9231 15.931C12.9694 16.4475 11.9867 15.9999 11.451 16.0318C11.192 16.0472 10.8579 16.2231 10.7373 16.0371C10.6046 15.8322 11.043 14.7022 12.0772 14.514C12.8283 14.3774 13.8747 14.5288 14.1426 14.8862C14.4105 14.5288 15.4569 14.3774 16.2079 14.514C17.2422 14.7022 17.6806 15.8322 17.5479 16.0371C17.4273 16.2231 17.0931 16.0472 16.8342 16.0318C16.2984 15.9999 15.3158 16.4475 14.3621 15.931C14.2751 15.8839 14.2006 15.8152 14.1426 15.7328Z" fill="#28354B"/>
<path d="M29.9999 7.71429H1.71423V33.8572H29.9999V7.71429Z" fill="#ECDCBF"/>
</g>
<g filter="url(#filter7_d)">
<path fill-rule="evenodd" clip-rule="evenodd" d="M12.4297 10.6369C12.6987 10.6394 12.8259 10.685 12.8717 10.9706C12.9182 11.2599 12.873 11.5851 12.8195 11.8701C12.7378 12.3051 12.6019 12.7314 12.2855 13.0494C12.1188 13.2169 11.9156 13.3504 11.6994 13.4415C11.5846 13.4899 11.4634 13.5249 11.3422 13.5514C11.3067 13.5592 11.0042 13.6016 11.1898 13.58C10.7568 13.6303 10.2871 13.6283 9.92554 13.3478C9.52482 13.0369 9.25039 12.545 9.12973 12.055C9.05913 11.7682 8.91078 11.0825 9.18183 10.8533C9.49233 10.5906 12.4297 10.6369 12.4297 10.6369Z" fill="black" fill-opacity="0.7"/>
<path style="mix-blend-mode:screen" fill-rule="evenodd" clip-rule="evenodd" d="M12.4297 10.6369C12.6987 10.6394 12.8259 10.685 12.8717 10.9706C12.9182 11.2599 12.873 11.5851 12.8195 11.8701C12.7378 12.3051 12.6019 12.7314 12.2855 13.0494C12.1188 13.2169 11.9156 13.3504 11.6994 13.4415C11.5846 13.4899 11.4634 13.5249 11.3422 13.5514C11.3067 13.5592 11.0042 13.6016 11.1898 13.58C10.7568 13.6303 10.2871 13.6283 9.92554 13.3478C9.52482 13.0369 9.25039 12.545 9.12973 12.055C9.05913 11.7682 8.91078 11.0825 9.18183 10.8533C9.49233 10.5906 12.4297 10.6369 12.4297 10.6369Z" fill="url(#paint0_linear)"/>
<path fill-rule="evenodd" clip-rule="evenodd" d="M15.8485 10.6366C15.5795 10.6392 15.4524 10.6847 15.4065 10.9703C15.3601 11.2596 15.4052 11.5848 15.4588 11.8697C15.5405 12.3048 15.6764 12.7311 15.9928 13.0491C16.1594 13.2166 16.3627 13.3501 16.5789 13.4413C16.6937 13.4896 16.8149 13.5246 16.9361 13.5511C16.9715 13.5588 17.274 13.6013 17.0885 13.5797C17.5214 13.63 17.9911 13.628 18.3527 13.3475C18.7535 13.0366 19.0279 12.5447 19.1485 12.0547C19.2191 11.7679 19.3675 11.0822 19.0964 10.853C18.7859 10.5903 15.8485 10.6366 15.8485 10.6366Z" fill="black" fill-opacity="0.7"/>
<path style="mix-blend-mode:screen" fill-rule="evenodd" clip-rule="evenodd" d="M15.8485 10.6366C15.5795 10.6392 15.4524 10.6847 15.4065 10.9703C15.3601 11.2596 15.4052 11.5848 15.4588 11.8697C15.5405 12.3048 15.6764 12.7311 15.9928 13.0491C16.1594 13.2166 16.3627 13.3501 16.5789 13.4413C16.6937 13.4896 16.8149 13.5246 16.9361 13.5511C16.9715 13.5588 17.274 13.6013 17.0885 13.5797C17.5214 13.63 17.9911 13.628 18.3527 13.3475C18.7535 13.0366 19.0279 12.5447 19.1485 12.0547C19.2191 11.7679 19.3675 11.0822 19.0964 10.853C18.7859 10.5903 15.8485 10.6366 15.8485 10.6366Z" fill="url(#paint1_linear)"/>
<path fill-rule="evenodd" clip-rule="evenodd" d="M12.3482 10.7438C12.6023 10.7462 12.7224 10.7884 12.7657 11.0534C12.8095 11.3218 12.7669 11.6236 12.7163 11.888C12.6391 12.2917 12.5108 12.6873 12.2119 12.9823C12.0545 13.1377 11.8625 13.2616 11.6583 13.3461C11.5499 13.3911 11.4354 13.4235 11.3209 13.4481C11.2874 13.4553 11.0017 13.4947 11.1769 13.4746C10.768 13.5213 10.3243 13.5195 9.9828 13.2592C9.60429 12.9707 9.34507 12.5143 9.2311 12.0596C9.16441 11.7935 9.02428 11.1573 9.28032 10.9445C9.5736 10.7008 12.3482 10.7438 12.3482 10.7438ZM9.77338 10.0168C9.19048 10.0369 8.80147 10.1393 8.51397 10.7217C7.98708 11.7889 8.88891 13.3895 9.89493 13.8257C11.071 14.3356 12.3849 13.7713 13.0067 12.7506C13.336 12.2102 13.5025 11.3918 13.4917 10.7683C13.4781 9.97247 12.9222 9.9504 12.2689 9.9679L9.77338 10.0168Z" fill="#252C2F"/>
<path fill-rule="evenodd" clip-rule="evenodd" d="M15.9301 10.7435C15.676 10.7459 15.5559 10.7881 15.5126 11.0531C15.4687 11.3216 15.5114 11.6233 15.5619 11.8877C15.6391 12.2915 15.7675 12.687 16.0663 12.9821C16.2237 13.1375 16.4157 13.2613 16.6199 13.3459C16.7284 13.3908 16.8429 13.4232 16.9574 13.4478C16.9908 13.455 17.2765 13.4944 17.1013 13.4744C17.5103 13.5211 17.9539 13.5192 18.2955 13.2589C18.674 12.9705 18.9332 12.514 19.0472 12.0593C19.1139 11.7933 19.2539 11.157 18.9979 10.9443C18.7047 10.7006 15.9301 10.7435 15.9301 10.7435ZM18.5049 10.0166C19.0878 10.0366 19.4768 10.1391 19.7643 10.7214C20.2911 11.7887 19.3894 13.3892 18.3833 13.8254C17.2072 14.3353 15.8933 13.771 15.2715 12.7504C14.9423 12.21 14.7758 11.3915 14.7865 10.768C14.8002 9.9722 15.356 9.95013 16.0094 9.96767L18.5049 10.0166Z" fill="#252C2F"/>
<path fill-rule="evenodd" clip-rule="evenodd" d="M8.80678 10.4921C8.44122 10.5127 8.02347 10.5176 7.68105 10.6756C7.3184 10.843 7.26236 11.222 7.71953 11.2742C7.92543 11.2977 8.13156 11.2589 8.33431 11.2227C8.50035 11.193 8.72589 11.2026 8.8828 11.1392C9.1752 11.021 9.15643 10.4721 8.80678 10.4921Z" fill="#252C2F"/>
<path fill-rule="evenodd" clip-rule="evenodd" d="M19.4715 10.4921C19.8371 10.5127 20.2548 10.5176 20.5972 10.6756C20.9599 10.843 21.0159 11.222 20.5588 11.2742C20.3529 11.2977 20.1467 11.2589 19.944 11.2227C19.7779 11.193 19.5524 11.2026 19.3955 11.1392C19.1031 11.021 19.1219 10.4721 19.4715 10.4921Z" fill="#252C2F"/>
<path fill-rule="evenodd" clip-rule="evenodd" d="M15.226 10.7156C15.0175 10.4692 14.474 10.3269 14.1312 10.3269C13.7884 10.3269 13.2609 10.4692 13.0524 10.7156C12.9472 10.8399 12.9436 11.0061 13.1259 11.084C13.3528 11.181 13.5554 11.0051 13.7371 10.913C13.9694 10.7953 14.3263 10.8083 14.5413 10.913C14.7243 11.0023 14.9255 11.181 15.1525 11.084C15.3347 11.0061 15.3312 10.8399 15.226 10.7156Z" fill="#252C2F"/>
</g>
</g>
</g>
<defs>
<filter id="filter0_d" x="14.8134" y="3.702" width="10.3387" height="10.0326" filterUnits="userSpaceOnUse" color-interpolation-filters="sRGB">
<feFlood flood-opacity="0" result="BackgroundImageFix"/>
<feColorMatrix in="SourceAlpha" type="matrix" values="0 0 0 0 0 0 0 0 0 0 0 0 0 0 0 0 0 0 127 0"/>
<feOffset dy="2"/>
<feGaussianBlur stdDeviation="2"/>
<feColorMatrix type="matrix" values="0 0 0 0 0 0 0 0 0 0 0 0 0 0 0 0 0 0 0.2 0"/>
<feBlend mode="normal" in2="BackgroundImageFix" result="effect1_dropShadow"/>
<feBlend mode="normal" in="SourceGraphic" in2="effect1_dropShadow" result="shape"/>
</filter>
<filter id="filter1_d" x="11.7259" y="-0.515137" width="10.8005" height="9.75749" filterUnits="userSpaceOnUse" color-interpolation-filters="sRGB">
<feFlood flood-opacity="0" result="BackgroundImageFix"/>
<feColorMatrix in="SourceAlpha" type="matrix" values="0 0 0 0 0 0 0 0 0 0 0 0 0 0 0 0 0 0 127 0"/>
<feOffset dy="2"/>
<feGaussianBlur stdDeviation="2"/>
<feColorMatrix type="matrix" values="0 0 0 0 0 0 0 0 0 0 0 0 0 0 0 0 0 0 0.2 0"/>
<feBlend mode="normal" in2="BackgroundImageFix" result="effect1_dropShadow"/>
<feBlend mode="normal" in="SourceGraphic" in2="effect1_dropShadow" result="shape"/>
</filter>
<filter id="filter2_d" x="4.75378" y="3.48877" width="10.8005" height="9.75748" filterUnits="userSpaceOnUse" color-interpolation-filters="sRGB">
<feFlood flood-opacity="0" result="BackgroundImageFix"/>
<feColorMatrix in="SourceAlpha" type="matrix" values="0 0 0 0 0 0 0 0 0 0 0 0 0 0 0 0 0 0 127 0"/>
<feOffset dy="2"/>
<feGaussianBlur stdDeviation="2"/>
<feColorMatrix type="matrix" values="0 0 0 0 0 0 0 0 0 0 0 0 0 0 0 0 0 0 0.2 0"/>
<feBlend mode="normal" in2="BackgroundImageFix" result="effect1_dropShadow"/>
<feBlend mode="normal" in="SourceGraphic" in2="effect1_dropShadow" result="shape"/>
</filter>
<filter id="filter3_d" x="3.11041" y="1.10941" width="10.6907" height="10.7628" filterUnits="userSpaceOnUse" color-interpolation-filters="sRGB">
<feFlood flood-opacity="0" result="BackgroundImageFix"/>
<feColorMatrix in="SourceAlpha" type="matrix" values="0 0 0 0 0 0 0 0 0 0 0 0 0 0 0 0 0 0 127 0"/>
<feOffset dy="2"/>
<feGaussianBlur stdDeviation="2"/>
<feColorMatrix type="matrix" values="0 0 0 0 0 0 0 0 0 0 0 0 0 0 0 0 0 0 0.2 0"/>
<feBlend mode="normal" in2="BackgroundImageFix" result="effect1_dropShadow"/>
<feBlend mode="normal" in="SourceGraphic" in2="effect1_dropShadow" result="shape"/>
</filter>
<filter id="filter4_d" x="5.25964" y="-0.239868" width="12.1946" height="12.1941" filterUnits="userSpaceOnUse" color-interpolation-filters="sRGB">
<feFlood flood-opacity="0" result="BackgroundImageFix"/>
<feColorMatrix in="SourceAlpha" type="matrix" values="0 0 0 0 0 0 0 0 0 0 0 0 0 0 0 0 0 0 127 0"/>
<feOffset dy="2"/>
<feGaussianBlur stdDeviation="2"/>
<feColorMatrix type="matrix" values="0 0 0 0 0 0 0 0 0 0 0 0 0 0 0 0 0 0 0.2 0"/>
<feBlend mode="normal" in2="BackgroundImageFix" result="effect1_dropShadow"/>
<feBlend mode="normal" in="SourceGraphic" in2="effect1_dropShadow" result="shape"/>
</filter>
<filter id="filter5_d" x="12.6869" y="0.78894" width="11.8291" height="11.9317" filterUnits="userSpaceOnUse" color-interpolation-filters="sRGB">
<feFlood flood-opacity="0" result="BackgroundImageFix"/>
<feColorMatrix in="SourceAlpha" type="matrix" values="0 0 0 0 0 0 0 0 0 0 0 0 0 0 0 0 0 0 127 0"/>
<feOffset dy="2"/>
<feGaussianBlur stdDeviation="2"/>
<feColorMatrix type="matrix" values="0 0 0 0 0 0 0 0 0 0 0 0 0 0 0 0 0 0 0.2 0"/>
<feBlend mode="normal" in2="BackgroundImageFix" result="effect1_dropShadow"/>
<feBlend mode="normal" in="SourceGraphic" in2="effect1_dropShadow" result="shape"/>
</filter>
<filter id="filter6_d" x="8.25464" y="-1.98718" width="13.7893" height="13.7371" filterUnits="userSpaceOnUse" color-interpolation-filters="sRGB">
<feFlood flood-opacity="0" result="BackgroundImageFix"/>
<feColorMatrix in="SourceAlpha" type="matrix" values="0 0 0 0 0 0 0 0 0 0 0 0 0 0 0 0 0 0 127 0"/>
<feOffset dy="2"/>
<feGaussianBlur stdDeviation="2"/>
<feColorMatrix type="matrix" values="0 0 0 0 0 0 0 0 0 0 0 0 0 0 0 0 0 0 0.2 0"/>
<feBlend mode="normal" in2="BackgroundImageFix" result="effect1_dropShadow"/>
<feBlend mode="normal" in="SourceGraphic" in2="effect1_dropShadow" result="shape"/>
</filter>
<filter id="filter7_d" x="3.39282" y="7.96429" width="21.4927" height="12.0522" filterUnits="userSpaceOnUse" color-interpolation-filters="sRGB">
<feFlood flood-opacity="0" result="BackgroundImageFix"/>
<feColorMatrix in="SourceAlpha" type="matrix" values="0 0 0 0 0 0 0 0 0 0 0 0 0 0 0 0 0 0 127 0"/>
<feOffset dy="2"/>
<feGaussianBlur stdDeviation="2"/>
<feColorMatrix type="matrix" values="0 0 0 0 0 0 0 0 0 0 0 0 0 0 0 0 0 0 0.1 0"/>
<feBlend mode="normal" in2="BackgroundImageFix" result="effect1_dropShadow"/>
<feBlend mode="normal" in="SourceGraphic" in2="effect1_dropShadow" result="shape"/>
</filter>
<linearGradient id="paint0_linear" x1="10.9582" y1="10.6337" x2="10.9582" y2="12.7287" gradientUnits="userSpaceOnUse">
<stop stop-color="white" stop-opacity="0.5"/>
<stop offset="1" stop-opacity="0.5"/>
</linearGradient>
<linearGradient id="paint1_linear" x1="17.3201" y1="10.6334" x2="17.3201" y2="13.6048" gradientUnits="userSpaceOnUse">
<stop stop-color="white" stop-opacity="0.5"/>
<stop offset="0.705058" stop-opacity="0.5"/>
</linearGradient>
</defs>
</svg>
